
<svg xmlns="http://www.w3.org/2000/svg" width="200" height="60" viewBox="0 0 200 60">
  <rect x="0" y="0" width="200" height="60" fill="white" fill-opacity="0"/>
  <g>
    <path d="M30 15C20 15 12 23 12 33S20 51 30 51c5.5 0 10.5-2.5 13.8-6.4L38 39h-8v6h3.5l3.8 3.6C35.5 49.5 33 50 30 50c-9.4 0-17-7.6-17-17s7.6-17 17-17c7 0 13 4.2 15.6 10.2l0.9-0.3C44 19.4 37.5 15 30 15z" fill="#0056b3"/>
    <text x="55" y="38" font-family="Arial, sans-serif" font-weight="bold" font-size="18" fill="#0056b3">Ecohosting</text>
    <text x="55" y="50" font-family="Arial, sans-serif" font-size="10" fill="#0056b3">Datacenter</text>
  </g>
</svg>
